<svg width="18" height="18" viewBox="0 0 18 18" fill="none" xmlns="http://www.w3.org/2000/svg">
<path d="M17.1471 15.702L13.0424 11.433C14.0605 10.2192 14.6341 8.69445 14.6684 7.11057C14.7027 5.52668 14.1955 3.9785 13.2308 2.72184C12.2661 1.46517 10.9016 0.57523 9.36263 0.199056C7.82369 -0.177118 6.20246 -0.0170095 4.76682 0.652926C3.33119 1.32286 2.16707 2.46253 1.46681 3.88362C0.76656 5.30471 0.572079 6.92218 0.915506 8.46876C1.25893 10.0153 2.11972 11.3985 3.35562 12.3896C4.59153 13.3808 6.1286 13.9207 7.71285 13.92C9.14106 13.9237 10.5351 13.4834 11.7021 12.66L15.8369 16.9613C15.9189 17.0498 16.0178 17.121 16.1277 17.1709C16.2376 17.2207 16.3563 17.2482 16.477 17.2516C16.5976 17.2551 16.7177 17.2345 16.8303 17.191C16.9429 17.1474 17.0457 17.0819 17.1326 16.9983C17.2196 16.9146 17.289 16.8144 17.3368 16.7036C17.3847 16.5928 17.4099 16.4735 17.4111 16.3528C17.4123 16.2322 17.3895 16.1125 17.3439 16.0007C17.2983 15.889 17.2309 15.7874 17.1456 15.702H17.1471ZM7.71285 1.80976C8.73073 1.80976 9.72575 2.11159 10.5721 2.6771C11.4184 3.2426 12.0781 4.04637 12.4676 4.98677C12.8571 5.92717 12.959 6.96196 12.7605 7.96029C12.5619 8.95861 12.0717 9.87563 11.352 10.5954C10.6322 11.3151 9.71521 11.8053 8.71688 12.0039C7.71856 12.2024 6.68377 12.1005 5.74337 11.711C4.80297 11.3215 3.9992 10.6618 3.43369 9.8155C2.86819 8.96916 2.56635 7.97414 2.56635 6.95626C2.56794 5.59181 3.11067 4.2837 4.07548 3.31888C5.04029 2.35407 6.3484 1.81134 7.71285 1.80976Z" fill="#494949"/>
</svg>
