<svg width="12" height="12" viewBox="0 0 12 12" fill="none" xmlns="http://www.w3.org/2000/svg">
<circle cx="6" cy="6" r="6" fill="white"/>
<path d="M5.54589 0.0105381C4.20128 0.138239 3.04948 0.616489 2.07545 1.45781C0.971216 2.4068 0.282636 3.66627 0.0447625 5.15862C-0.0153318 5.55173 -0.0153318 6.45315 0.0472664 6.85127C0.232557 8.03312 0.695784 9.05222 1.45197 9.9311C2.40847 11.0453 3.74557 11.7615 5.24542 11.9693C5.5534 12.0119 6.4423 12.0094 6.74778 11.9668C8.49552 11.7264 9.98035 10.8175 10.9519 9.39777C12.1162 7.69509 12.3265 5.53671 11.5128 3.62872C11.052 2.54702 10.2483 1.60304 9.22666 0.941999C8.44294 0.433702 7.49144 0.108191 6.53494 0.0205545C6.27954 -0.00198078 5.75121 -0.00698948 5.54589 0.0105381ZM6.30959 2.45187C6.59253 2.55703 6.81288 2.80242 6.88549 3.09287C6.92305 3.24311 6.92055 3.30821 6.78534 4.93326C6.71022 5.85971 6.64011 6.65096 6.6326 6.69352C6.57501 6.97146 6.28455 7.20683 5.99409 7.20683C5.70114 7.20683 5.40818 6.96395 5.3606 6.681C5.35058 6.63343 5.28298 5.84469 5.20536 4.93076C5.06013 3.15798 5.06013 3.15798 5.1678 2.91259C5.34808 2.50445 5.87891 2.29162 6.30959 2.45187ZM6.33463 8.08571C6.49238 8.16082 6.64261 8.31106 6.72274 8.47131C6.77282 8.57397 6.78534 8.63407 6.78283 8.80934C6.78283 8.98962 6.77282 9.04221 6.71523 9.15238C6.63009 9.31764 6.5049 9.44284 6.33964 9.52797C6.22946 9.58556 6.17688 9.59558 5.9966 9.59558C5.82132 9.59808 5.76123 9.58556 5.65857 9.53548C5.00755 9.21498 5.06263 8.29604 5.74621 8.04815C5.90395 7.99056 6.17187 8.00809 6.33463 8.08571Z" fill="#DE1135"/>
</svg>
