<svg width="18" height="19" viewBox="0 0 18 19" fill="none" xmlns="http://www.w3.org/2000/svg">
<path d="M8.12702 1.01427C4.35771 1.37664 1.16748 4.12991 0.247352 7.81396C0.041301 8.63816 -0.00488281 9.05381 -0.00488281 9.99881C-0.00488281 10.9438 0.041301 11.3595 0.247352 12.1837C1.05024 15.4023 3.5939 17.946 6.81256 18.7489C7.63676 18.9549 8.05242 19.0011 8.99741 19.0011C9.9424 19.0011 10.3581 18.9549 11.1823 18.7489C14.4009 17.946 16.9446 15.4023 17.7475 12.1837C17.9535 11.3595 17.9997 10.9438 17.9997 9.99881C17.9997 9.05381 17.9535 8.63816 17.7475 7.81396C17.0263 4.91503 14.8841 2.54545 12.0633 1.51164C10.8554 1.07112 9.42727 0.889935 8.12702 1.01427ZM9.76122 2.82255C12.582 3.13873 14.9835 5.07845 15.8504 7.7429C16.6959 10.3399 16.028 13.1429 14.1061 15.0826C11.9425 17.2674 8.61728 17.8323 5.85336 16.4859C3.35233 15.2638 1.78563 12.7663 1.78563 9.99881C1.78563 6.60962 4.16232 3.66452 7.47334 2.95044C7.70071 2.90071 8.00979 2.84742 8.1661 2.82965C8.56044 2.78347 9.38109 2.77992 9.76122 2.82255Z" fill="#C2C3C4"/>
<path d="M8.61742 4.67344C8.44335 4.75871 8.23019 4.98252 8.15914 5.15304C8.11651 5.25252 8.1094 5.7037 8.1094 7.74289C8.1094 10.4429 8.1023 10.3256 8.32256 10.5779C8.4469 10.7235 11.2179 12.5815 11.4133 12.649C11.7295 12.7663 12.0634 12.6846 12.3263 12.4323C12.6319 12.1339 12.6923 11.768 12.4969 11.3843C12.4507 11.2955 12.3761 11.1889 12.3299 11.1498C12.2873 11.1072 11.7153 10.72 11.0687 10.2866L9.8857 9.50143V7.38053C9.8857 5.31291 9.88215 5.25607 9.8111 5.11041C9.72939 4.93634 9.50557 4.71963 9.3315 4.64858C9.15031 4.57397 8.79505 4.58463 8.61742 4.67344Z" fill="#C2C3C4"/>
</svg>
