<svg width="14" height="14" viewBox="0 0 14 14" fill="none" xmlns="http://www.w3.org/2000/svg">
<path d="M2.90223 0.0465851C2.76535 0.10955 2.65311 0.238215 2.61478 0.375094C2.60109 0.429846 2.58741 0.602313 2.58741 0.752879V1.03211L2.0481 1.04306C1.44036 1.05675 1.28432 1.09234 0.944862 1.27576C0.671105 1.42632 0.350809 1.76578 0.208455 2.05323C-0.0187638 2.51588 0.000399187 2.03406 0.000399187 7.52564C0.000399187 13.009 -0.0160262 12.5354 0.205717 12.9898C0.408298 13.4059 0.802508 13.7481 1.27063 13.9151L1.50606 14H6.74852H11.991L12.21 13.9233C12.8259 13.7071 13.2804 13.2171 13.4474 12.5901C13.4939 12.4232 13.4966 12.1001 13.4966 7.52564C13.4966 2.03133 13.5158 2.51861 13.2858 2.05049C13.1243 1.72198 12.7986 1.39621 12.47 1.23743C12.1498 1.07865 11.9143 1.03759 11.3613 1.03759H10.9096V0.755617C10.9096 0.424371 10.8795 0.30118 10.77 0.175251C10.5318 -0.0930309 10.0801 -0.0382795 9.9241 0.282017C9.87757 0.377831 9.86935 0.451746 9.86935 0.717291V1.03759H6.75126H3.63316L3.62221 0.687178C3.614 0.369618 3.60852 0.325818 3.5483 0.238215C3.39773 0.0219469 3.12945 -0.0601807 2.90223 0.0465851ZM2.59288 2.39816C2.60383 2.77321 2.64763 2.88819 2.81189 3.00864C3.01173 3.15373 3.26632 3.14004 3.45522 2.97305C3.60031 2.84439 3.62768 2.75678 3.62768 2.39269V2.07786H6.74852H9.86935V2.39269C9.86935 2.75678 9.89673 2.84439 10.0418 2.97305C10.2362 3.14278 10.5017 3.15099 10.7071 2.99495C10.8521 2.88545 10.8932 2.76226 10.9042 2.39816L10.9151 2.07786H11.3504C11.72 2.07786 11.8048 2.08608 11.9335 2.13262C12.1224 2.20379 12.2894 2.36531 12.3824 2.56515L12.4564 2.7212L12.4646 3.56163L12.4755 4.4048H6.74852H1.02151L1.03246 3.56163C1.04068 2.82796 1.04889 2.70751 1.08995 2.61169C1.16661 2.43649 1.27063 2.30782 1.38835 2.22843C1.58545 2.09703 1.66758 2.0806 2.13844 2.0806L2.58193 2.07786L2.59288 2.39816ZM12.4646 8.88621L12.4564 12.3301L12.3852 12.4806C12.3003 12.6613 12.1525 12.8119 11.98 12.8968L11.8541 12.9597H6.74852H1.64294L1.51702 12.8968C1.34181 12.8119 1.19672 12.6641 1.11185 12.4834L1.04068 12.3301L1.03246 8.88621L1.02699 5.44508H6.74852H12.47L12.4646 8.88621Z" fill="black"/>
</svg>
