<svg width="12" height="10" viewBox="0 0 12 10" fill="none" xmlns="http://www.w3.org/2000/svg">
<path d="M10.6099 0.0893755C10.4987 0.141177 9.31082 1.45347 7.33942 3.69818L4.2408 7.2149L2.9417 5.74144C2.22391 4.93565 1.56678 4.23346 1.4859 4.18166C0.965253 3.88236 0.378889 4.09532 0.121092 4.6824C-0.0305538 5.02774 -0.0406635 5.3443 0.0958176 5.66086C0.156476 5.81627 0.813607 6.59904 1.95095 7.88831C3.33598 9.45961 3.75048 9.89704 3.90718 9.95459C4.16498 10.0467 4.5542 9.99488 4.76145 9.83373C5.00408 9.64379 11.6512 2.08084 11.8382 1.78154C11.9798 1.55132 12 1.47649 12 1.13691C12 0.803079 11.9798 0.7225 11.8484 0.50954C11.5653 0.054842 11.0446 -0.123584 10.6099 0.0893755Z" fill="#007AFF"/>
</svg>
