<svg width="15" height="15" viewBox="0 0 15 15" fill="none" xmlns="http://www.w3.org/2000/svg">
<path d="M6.78223 0.0908194C3.67383 0.389647 1.04297 2.66016 0.28418 5.69824C0.114258 6.37793 0.0761719 6.7207 0.0761719 7.5C0.0761719 8.2793 0.114258 8.62207 0.28418 9.30176C0.946289 11.9561 3.04395 14.0537 5.69824 14.7158C6.37793 14.8857 6.7207 14.9238 7.5 14.9238C8.2793 14.9238 8.62207 14.8857 9.30176 14.7158C11.9561 14.0537 14.0537 11.9561 14.7158 9.30176C14.8857 8.62207 14.9238 8.2793 14.9238 7.5C14.9238 6.7207 14.8857 6.37793 14.7158 5.69824C14.1211 3.30762 12.3545 1.35351 10.0283 0.500976C9.03223 0.137694 7.85449 -0.0117197 6.78223 0.0908194ZM8.12988 1.58203C10.4561 1.84277 12.4365 3.44238 13.1514 5.63965C13.8486 7.78125 13.2979 10.0928 11.7129 11.6924C9.92871 13.4941 7.18652 13.96 4.90723 12.8496C2.84473 11.8418 1.55273 9.78223 1.55273 7.5C1.55273 4.70508 3.5127 2.27637 6.24316 1.6875C6.43066 1.64648 6.68555 1.60254 6.81445 1.58789C7.13965 1.5498 7.81641 1.54687 8.12988 1.58203Z" fill="black"/>
<path d="M7.18654 3.10839C7.04299 3.1787 6.86721 3.36327 6.80862 3.50389C6.77346 3.58592 6.7676 3.95799 6.7676 5.63964C6.7676 7.8662 6.76174 7.76952 6.94338 7.97753C7.04592 8.09764 9.33108 9.62987 9.49221 9.68553C9.75295 9.78221 10.0283 9.71483 10.2451 9.50682C10.4971 9.26073 10.5469 8.95897 10.3858 8.64256C10.3477 8.56932 10.2862 8.48143 10.2481 8.44921C10.2129 8.41405 9.74123 8.09471 9.20803 7.73729L8.23244 7.08983V5.34081C8.23244 3.63573 8.22951 3.58885 8.17092 3.46874C8.10354 3.32518 7.91897 3.14647 7.77541 3.08788C7.626 3.02635 7.33303 3.03514 7.18654 3.10839Z" fill="black"/>
</svg>
