<svg width="18" height="13" viewBox="0 0 18 13" fill="none" xmlns="http://www.w3.org/2000/svg">
<path d="M5.37073 0.334211C5.19124 0.397109 5.03755 0.517536 4.93353 0.676756C4.82951 0.835976 4.78098 1.02508 4.79548 1.21472C4.81016 1.36019 4.86102 1.49968 4.94342 1.62046C5.02582 1.74124 5.13714 1.83948 5.26723 1.90622L5.39998 1.98122H16.9312L17.064 1.90622C17.2057 1.83751 17.3248 1.72967 17.4072 1.59544C17.4896 1.46121 17.5319 1.30619 17.529 1.14871C17.5335 0.989979 17.4929 0.833243 17.4117 0.696737C17.3306 0.560232 17.2123 0.449591 17.0707 0.377722C16.971 0.321472 16.6417 0.31773 11.2155 0.31098C8.05273 0.30723 5.42398 0.316961 5.37073 0.334211Z" fill="black"/>
<path d="M1.19712 5.42225C1.0374 5.46474 0.892326 5.55008 0.777588 5.66905C0.66285 5.78802 0.582811 5.93609 0.546124 6.09724C0.510016 6.30793 0.556486 6.52443 0.675874 6.70174C0.737681 6.79901 0.818856 6.8825 0.914342 6.94701C1.00983 7.01153 1.11758 7.05569 1.23087 7.07674C1.35387 7.09999 4.03212 7.10675 9.15687 7.103C16.1686 7.09325 16.9096 7.08651 17.0161 7.04001C17.1946 6.95577 17.343 6.81887 17.4414 6.64775C17.5163 6.52792 17.548 6.38608 17.5314 6.24574C17.548 6.1054 17.5163 5.96359 17.4414 5.84376C17.343 5.67263 17.1946 5.53574 17.0161 5.4515C16.9096 5.402 16.1724 5.39826 9.12387 5.39526C4.71987 5.39526 1.28037 5.40575 1.19712 5.42225Z" fill="black"/>
<path d="M8.77077 10.5522C8.60947 10.6074 8.46864 10.7101 8.36676 10.8467C8.26488 10.9834 8.20671 11.1477 8.19989 11.3181C8.19308 11.4884 8.23795 11.6569 8.32858 11.8012C8.41922 11.9456 8.5514 12.0592 8.70777 12.1272C8.85402 12.1939 8.90352 12.1969 12.8485 12.1969C17.2915 12.1969 17.0223 12.2104 17.2735 11.9674C17.3607 11.8909 17.4291 11.7954 17.4735 11.6882C17.5178 11.5811 17.5369 11.4651 17.5293 11.3494C17.5361 11.222 17.5102 11.095 17.4543 10.9804C17.3366 10.776 17.1507 10.6196 16.9293 10.5387C16.7065 10.4824 8.93352 10.4892 8.77077 10.5522Z" fill="black"/>
</svg>
